<svg width="25" height="25" viewBox="0 0 25 25" fill="none" xmlns="http://www.w3.org/2000/svg">
<path d="M12.4999 22.9163C6.74695 22.9163 2.08325 18.2526 2.08325 12.4997C2.08325 6.74671 6.74695 2.08301 12.4999 2.08301C18.2529 2.08301 22.9166 6.74671 22.9166 12.4997C22.9103 18.25 18.2503 22.91 12.4999 22.9163ZM12.4999 4.16634C7.89755 4.16634 4.16659 7.8973 4.16659 12.4997C4.16659 17.102 7.89755 20.833 12.4999 20.833C17.1023 20.833 20.8333 17.102 20.8333 12.4997C20.8281 7.89944 17.1002 4.17151 12.4999 4.16634ZM16.6666 17.708H8.33325V15.6247H16.6666V17.708ZM8.85409 12.4997C7.99114 12.4997 7.29159 11.8001 7.29159 10.9372C7.29159 10.0742 7.99114 9.37468 8.85409 9.37468C9.71703 9.37468 10.4166 10.0742 10.4166 10.9372C10.4166 11.8001 9.71703 12.4997 8.85409 12.4997ZM16.1385 12.4851C15.2795 12.4851 14.5833 11.7888 14.5833 10.9299C14.5833 10.071 15.2795 9.37468 16.1385 9.37468C16.9974 9.37468 17.6937 10.071 17.6937 10.9299C17.6925 11.7883 16.9969 12.4839 16.1385 12.4851Z" fill="#8191A9" fill-opacity="0.5"/>
</svg>
