<svg width="16" height="23" viewBox="0 0 16 23" fill="none" xmlns="http://www.w3.org/2000/svg">
<path fill-rule="evenodd" clip-rule="evenodd" d="M11.5104 4.69432L11.5104 10.3658C11.5438 12.2116 10.075 13.7352 8.22918 13.7695C6.38339 13.7352 4.91461 12.2116 4.94794 10.3658L4.94794 4.69432C4.91542 2.84907 6.38397 1.32635 8.22918 1.29203C10.0744 1.32635 11.5429 2.84907 11.5104 4.69432Z" stroke="white" stroke-width="2" stroke-linecap="round" stroke-linejoin="round"/>
<path d="M2.28319 14.2774C1.84832 13.937 1.21979 14.0135 0.879345 14.4484C0.538896 14.8832 0.61544 15.5118 1.05031 15.8522L2.28319 14.2774ZM15.4082 15.8522C15.8431 15.5118 15.9196 14.8832 15.5792 14.4484C15.2387 14.0135 14.6102 13.937 14.1753 14.2774L15.4082 15.8522ZM9.22925 17.334C9.22925 16.7817 8.78153 16.334 8.22925 16.334C7.67696 16.334 7.22925 16.7817 7.22925 17.334H9.22925ZM7.22925 21.709C7.22925 22.2613 7.67696 22.709 8.22925 22.709C8.78153 22.709 9.22925 22.2613 9.22925 21.709H7.22925ZM1.05031 15.8522C5.26702 19.1534 11.1915 19.1534 15.4082 15.8522L14.1753 14.2774C10.6828 17.0116 5.77574 17.0116 2.28319 14.2774L1.05031 15.8522ZM7.22925 17.334L7.22925 21.709H9.22925V17.334H7.22925Z" fill="white"/>
</svg>
