<svg width="23" height="23" viewBox="0 0 23 23" fill="none" xmlns="http://www.w3.org/2000/svg">
<path d="M9.17107 12.4147C8.78054 12.8052 8.78054 13.4384 9.17107 13.8289C9.56159 14.2194 10.1948 14.2194 10.5853 13.8289L9.17107 12.4147ZM15.2295 9.18465C15.62 8.79412 15.62 8.16096 15.2295 7.77043C14.839 7.37991 14.2058 7.37991 13.8153 7.77043L15.2295 9.18465ZM10.5853 13.8289L15.2295 9.18465L13.8153 7.77043L9.17107 12.4147L10.5853 13.8289Z" fill="white"/>
<path d="M13.158 19.902L12.2636 20.3492L12.2636 20.3492L13.158 19.902ZM14.9311 19.7552L13.9754 19.4611L13.9754 19.4611L14.9311 19.7552ZM9.51892 13.0523L9.0717 13.9468L9.51892 13.0523ZM9.9475 13.4809L10.8419 13.0337L10.8419 13.0337L9.9475 13.4809ZM3.24461 8.06871L3.5387 9.02449L3.24461 8.06871ZM3.09786 9.84182L2.65065 10.7362L3.09786 9.84182ZM18.395 3.40705L18.6891 4.36282L18.395 3.40705ZM19.5928 4.60483L20.5486 4.89892L19.5928 4.60483ZM18.1009 2.45127L2.95052 7.11293L3.5387 9.02449L18.6891 4.36282L18.1009 2.45127ZM2.65065 10.7362L9.0717 13.9468L9.96613 12.1579L3.54508 8.94739L2.65065 10.7362ZM9.05307 13.9281L12.2636 20.3492L14.0525 19.4548L10.8419 13.0337L9.05307 13.9281ZM15.8869 20.0493L20.5486 4.89892L18.637 4.31075L13.9754 19.4611L15.8869 20.0493ZM12.2636 20.3492C13.0537 21.9294 15.3673 21.7379 15.8869 20.0493L13.9754 19.4611C13.9738 19.4663 13.9738 19.4638 13.9784 19.4574C13.9827 19.4512 13.9884 19.4452 13.9945 19.4406C14.0003 19.4361 14.005 19.4339 14.0076 19.433C14.0101 19.432 14.0114 19.4319 14.0117 19.4319C14.0121 19.4318 14.0134 19.4318 14.016 19.4323C14.0187 19.4328 14.0237 19.4342 14.0302 19.4376C14.037 19.4412 14.0436 19.4461 14.0489 19.4515C14.0544 19.4572 14.0549 19.4596 14.0525 19.4548L12.2636 20.3492ZM9.0717 13.9468C9.06364 13.9427 9.0571 13.9362 9.05307 13.9281L10.8419 13.0337C10.6524 12.6547 10.3451 12.3474 9.96613 12.1579L9.0717 13.9468ZM2.95052 7.11293C1.26192 7.6325 1.07044 9.94614 2.65065 10.7362L3.54508 8.94739C3.54021 8.94496 3.54269 8.94545 3.54831 8.95097C3.55372 8.95627 3.55862 8.96287 3.56222 8.96967C3.56564 8.97612 3.56703 8.98111 3.56758 8.98386C3.56809 8.98645 3.568 8.98772 3.56797 8.9881C3.56794 8.98847 3.56781 8.98975 3.56688 8.99221C3.5659 8.99484 3.5637 8.99953 3.55927 9.00533C3.5546 9.01145 3.54868 9.01715 3.54248 9.0215C3.53602 9.02601 3.5335 9.02609 3.5387 9.02449L2.95052 7.11293ZM18.6891 4.36282C18.6912 4.36217 18.6887 4.36318 18.6825 4.36327C18.6765 4.36337 18.6702 4.36257 18.6644 4.36101C18.6535 4.35807 18.6488 4.35383 18.6474 4.35246C18.646 4.35109 18.6418 4.34638 18.6388 4.33547C18.6373 4.32968 18.6365 4.32337 18.6366 4.31738C18.6367 4.31117 18.6377 4.30861 18.637 4.31075L20.5486 4.89892C21.0109 3.39633 19.6035 1.98893 18.1009 2.45127L18.6891 4.36282Z" fill="white"/>
</svg>
